<svg xmlns="http://www.w3.org/2000/svg" version="1.1" xmlns:xlink="http://www.w3.org/1999/xlink" xmlns:svgjs="http://svgjs.dev/svgjs" width="1000" height="469" viewBox="0 0 1000 469"><g transform="matrix(1,0,0,1,-0.6060153826334158,0.39955293234925193)"><svg viewBox="0 0 396 186" data-background-color="#ffffff" preserveAspectRatio="xMidYMid meet" height="469" width="1000" xmlns="http://www.w3.org/2000/svg" xmlns:xlink="http://www.w3.org/1999/xlink"><g id="tight-bounds" transform="matrix(1,0,0,1,0.23998216147782614,-0.1584558540140506)"><svg viewBox="0 0 395.52 186.31691394658753" height="186.31691394658753" width="395.52"><g><svg viewBox="0 0 395.52 186.31691394658753" height="186.31691394658753" width="395.52"><g><svg viewBox="0 0 395.52 186.31691394658753" height="186.31691394658753" width="395.52"><g id="textblocktransform"><svg viewBox="0 0 395.52 186.31691394658753" height="186.31691394658753" width="395.52" id="textblock"><g><svg viewBox="0 0 395.52 186.31691394658753" height="186.31691394658753" width="395.52"><g transform="matrix(1,0,0,1,0,0)"><svg width="395.52" viewBox="-0.699999988079071 -26.149999618530273 67.39999389648438 31.75" height="186.31691394658753" data-palette-color="#ff5858"><path d="M21.15-22L21.15-22Q19.15-22.3 16.88-22.3 14.6-22.3 12.45-22L12.45-22Q13.8-19.7 15.65-18.25 17.5-16.8 20.33-15.38 23.15-13.95 24.93-12.75 26.7-11.55 28.85-8.8 31-6.05 31.55-3.05L31.55-3.05Q29.15 0.05 25.2 2.43 21.25 4.8 17.1 5.6L17.1 5.6Q14.3 5.35 10.03 4.03 5.75 2.7 3.6 2.7 1.45 2.7-0.7 4.05L-0.7 4.05Q0.2 1.5 2.25-2.35L2.25-2.35 2.65-2.35Q5.85-2.35 8.68-1.35 11.5-0.35 13.83 0.65 16.15 1.65 17.57 1.65 19 1.65 19.65 1.45L19.65 1.45Q19.65-1.85 17.6-4L17.6-4Q16.5-5.15 15.73-5.78 14.95-6.4 13.35-7.5L13.35-7.5 12.5-8.1Q9.1-10.45 6.9-12.88 4.7-15.3 3.7-18.85L3.7-18.85Q5.3-22.4 6.85-25L6.85-25Q11.6-26.15 16.7-26.15L16.7-26.15 18.9-26.15Q23.2-26.15 28.75-24.95L28.75-24.95Q27.95-21.65 26.8-19L26.8-19Q22.6-18.7 20.3-18.7L20.3-18.7Q20.75-19.85 21.15-22ZM66.7-20.85L66.7-20.85Q66.7-11.05 64.8 0L64.8 0 52.85 0Q53.65-5.9 53.9-12.7L53.9-12.7Q51.3-14.3 48.1-14.65L48.1-14.65Q47.8-7.3 46.5 0L46.5 0 35.15 0Q35.8-4.9 35.8-11.73 35.8-18.55 34.9-25L34.9-25 48.1-25Q48.2-22.95 48.2-18.9L48.2-18.9Q51.1-18 53.95-16.45L53.95-16.45Q53.95-21.1 53.6-25L53.6-25 66.6-25Q66.7-22.2 66.7-20.85Z" opacity="1" transform="matrix(1,0,0,1,0,0)" fill="#ff5858" class="wordmark-text-0" data-fill-palette-color="primary" id="text-0"></path></svg></g></svg></g></svg></g></svg></g><g></g></svg></g><defs></defs></svg><rect width="395.52" height="186.31691394658753" fill="none" stroke="none" visibility="hidden"></rect></g></svg></g></svg>